<svg height="512pt" viewBox="0 -11 512.00057 512" width="512pt" xmlns="http://www.w3.org/2000/svg"><path d="m510.375 205.152344c-4.0625-12.507813-15.703125-17.949219-26.351562-20.863282 6.902343-8.613281 13.125-19.855468 9.058593-32.367187-3.847656-11.847656-15.011719-22.027344-31.433593-28.667969-16.121094-6.519531-36.109376-9.148437-57.808594-7.605468-20.824219 1.480468-39.871094 7.785156-54.960938 14.601562 1.949219-15.585938 2.410156-35.511719-2.816406-56.582031-5.238281-21.113281-13.917969-39.3125-25.097656-52.628907-11.390625-13.566406-24.523438-21.039062-36.980469-21.039062-13.15625 0-21.925781 9.390625-27.984375 18.613281-6.058594-9.222656-14.828125-18.613281-27.984375-18.613281-12.457031 0-25.589844 7.472656-36.976563 21.039062-11.183593 13.316407-19.859374 31.515626-25.097656 52.628907-4.988281 20.109375-5.03125 39.8125-3.210937 56.398437-15.023438-6.742187-33.921875-12.953125-54.566407-14.417968-21.695312-1.542969-41.6875 1.085937-57.8125 7.605468-16.421874 6.640625-27.582031 16.820313-31.433593 28.667969-4.066407 12.511719 2.15625 23.753906 9.058593 32.367187-10.648437 2.914063-22.289062 8.355469-26.351562 20.863282-3.851562 11.847656-.804688 26.644531 8.578125 41.667968 9.210937 14.75 23.839844 28.628907 42.296875 40.132813 17.554688 10.941406 36.238281 17.066406 52.5625 20.464844-11.203125 12.335937-22.71875 28.273437-30.488281 47.453125-8.175781 20.15625-11.851563 39.980468-10.632813 57.332031 1.238282 17.667969 7.472656 31.429687 17.550782 38.753906 10.644531 7.730469 23.257812 5.289063 33.582031 1.386719-.523438 11.027344 1.054687 23.777344 11.699219 31.515625 10.078124 7.316406 25.09375 8.992187 42.277343 4.710937 16.875-4.203124 34.59375-13.824218 51.238281-27.824218 16.242188-13.660156 27.503907-30.488282 35.195313-44.601563 8.300781 14.703125 20.0625 31.011719 36.222656 44.601563 16.644531 14.003906 34.363281 23.625 51.238281 27.828125 6.234376 1.550781 12.183594 2.320312 17.714844 2.320312 9.714844 0 18.144532-2.375 24.5625-7.039062 10.640625-7.730469 12.21875-20.480469 11.703125-31.507813 10.324219 3.902344 22.941407 6.34375 33.585938-1.390625 10.074219-7.324219 16.308593-21.085937 17.546875-38.753906 1.21875-17.347656-2.460938-37.171875-10.632813-57.328125-7.839843-19.347656-19.722656-35.515625-30.863281-47.757812 15.417969-2.960938 34.515625-8.683594 52.9375-20.164063 18.457031-11.503906 33.085938-25.382813 42.296875-40.132813 9.382813-15.023437 12.429687-29.820312 8.578125-41.667968zm0 0" fill="#ffcdd4"/><path d="m510.375 205.152344c-4.0625-12.507813-15.703125-17.949219-26.351562-20.863282 6.902343-8.613281 13.125-19.855468 9.058593-32.367187-3.847656-11.847656-15.011719-22.027344-31.433593-28.667969-16.121094-6.519531-36.109376-9.148437-57.808594-7.605468-20.824219 1.480468-39.871094 7.785156-54.960938 14.601562 1.949219-15.585938 2.410156-35.511719-2.816406-56.582031-5.238281-21.113281-13.917969-39.3125-25.097656-52.628907-11.390625-13.566406-24.523438-21.039062-36.980469-21.039062-13.15625 0-21.925781 9.390625-27.984375 18.613281v398.425781c8.269531 14.464844 19.871094 30.390626 35.707031 43.707032 16.644531 14.003906 34.363281 23.625 51.238281 27.828125 6.234376 1.550781 12.183594 2.320312 17.714844 2.320312 9.714844 0 18.144532-2.375 24.5625-7.039062 10.640625-7.730469 12.21875-20.480469 11.703125-31.507813 10.324219 3.902344 22.941407 6.34375 33.585938-1.390625 10.074219-7.324219 16.308593-21.085937 17.546875-38.753906 1.21875-17.347656-2.460938-37.171875-10.632813-57.328125-7.839843-19.347656-19.722656-35.515625-30.863281-47.757812 15.417969-2.960938 34.515625-8.683594 52.9375-20.164063 18.457031-11.503906 33.085938-25.382813 42.296875-40.132813 9.382813-15.023437 12.429687-29.820312 8.578125-41.667968zm0 0" fill="#ffa9b5"/><path d="m289.902344 283.816406c1.539062.5 3.101562.738282 4.636718.738282 6.324219 0 12.203126-4.03125 14.261719-10.367188 2.5625-7.878906-1.75-16.34375-9.628906-18.902344l-18.902344-6.140625 11.683594-16.078125c4.867187-6.703125 3.382813-16.082031-3.316406-20.953125-6.707031-4.871093-16.085938-3.382812-20.953125 3.316407l-11.679688 16.082031-11.683594-16.082031c-4.867187-6.699219-14.25-8.1875-20.949218-3.316407-6.703125 4.867188-8.1875 14.246094-3.320313 20.949219l11.683594 16.082031-18.902344 6.140625c-7.878906 2.5625-12.191406 11.023438-9.632812 18.902344 2.0625 6.339844 7.941406 10.367188 14.265625 10.367188 1.535156 0 3.097656-.238282 4.636718-.738282l18.902344-6.140625v19.871094c0 8.285156 6.714844 15 15 15 8.28125 0 15-6.714844 15-15v-19.871094zm0 0" fill="#ff81ad"/><g fill="#ff5e95"><path d="m299.171875 255.285156-18.902344-6.140625 11.683594-16.078125c4.867187-6.703125 3.382813-16.082031-3.316406-20.953125-6.707031-4.871093-16.085938-3.382812-20.953125 3.316407l-11.679688 16.082031-.003906-.003907v81.039063c8.285156 0 15-6.714844 15-15v-19.871094l18.902344 6.140625c1.539062.5 3.101562.738282 4.636718.738282 6.324219 0 12.203126-4.03125 14.265626-10.367188 2.558593-7.878906-1.753907-16.34375-9.632813-18.902344zm0 0"/><path d="m308.476562 303.921875c-4.867187-6.703125-14.246093-8.1875-20.949218-3.320313-6.703125 4.871094-8.1875 14.25-3.320313 20.953126l18.273438 25.152343c2.9375 4.039063 7.511719 6.183594 12.148437 6.183594 3.058594 0 6.140625-.933594 8.804688-2.867187 6.699218-4.867188 8.1875-14.25 3.316406-20.949219zm0 0"/><path d="m346.207031 212.128906-29.566406 9.609375c-7.878906 2.558594-12.191406 11.019531-9.628906 18.898438 2.058593 6.339843 7.9375 10.371093 14.261719 10.371093 1.535156 0 3.097656-.238281 4.636718-.738281l29.566406-9.609375c7.878907-2.558594 12.191407-11.019531 9.632813-18.898437-2.5625-7.878907-11.023437-12.191407-18.902344-9.632813zm0 0"/></g><path d="m256 203.578125c8.285156 0 15-6.714844 15-15v-31.089844c0-8.285156-6.714844-15-15-15s-15 6.714844-15 15v31.089844c0 8.285156 6.714844 15 15 15zm0 0" fill="#ff81ad"/><path d="m271 188.578125v-31.089844c0-8.285156-6.714844-15-15-15v61.089844c8.285156 0 15-6.714844 15-15zm0 0" fill="#ff5e95"/><path d="m190.730469 251.007812c6.320312 0 12.203125-4.03125 14.261719-10.371093 2.5625-7.878907-1.753907-16.339844-9.628907-18.898438l-29.566406-9.609375c-7.886719-2.558594-16.34375 1.753906-18.902344 9.632813-2.558593 7.878906 1.753907 16.339843 9.628907 18.898437l29.566406 9.605469c1.542968.503906 3.105468.742187 4.640625.742187zm0 0" fill="#ff81ad"/><path d="m224.476562 300.601562c-6.703124-4.871093-16.082031-3.382812-20.953124 3.316407l-18.273438 25.152343c-4.867188 6.703126-3.382812 16.085938 3.320312 20.953126 2.660157 1.933593 5.746094 2.867187 8.804688 2.867187 4.636719 0 9.210938-2.144531 12.144531-6.183594l18.273438-25.152343c4.871093-6.703126 3.382812-16.082032-3.316407-20.953126zm0 0" fill="#ff81ad"/></svg>